<?xml version="1.0" encoding="UTF-8"?>
<svg xmlns="http://www.w3.org/2000/svg" xmlns:xlink="http://www.w3.org/1999/xlink" width="640pt" height="640pt" viewBox="0 0 640 640" version="1.1">
<g id="surface1">
<path style="fill-rule:nonzero;fill:rgb(100%,100%,0%);fill-opacity:1;stroke-width:1;stroke-linecap:round;stroke-linejoin:round;stroke:rgb(0%,0%,0%);stroke-opacity:1;stroke-miterlimit:10;" d="M 522.371094 312.800781 L 522.277344 306.835938 L 521.992188 300.878906 L 521.519531 294.933594 L 520.859375 289.003906 L 520.007812 283.101562 L 518.972656 277.226562 L 517.75 271.386719 L 516.34375 265.589844 L 514.757812 259.84375 L 512.984375 254.148438 L 511.035156 248.511719 L 508.90625 242.9375 L 506.601562 237.4375 L 504.125 232.011719 L 501.476562 226.667969 L 498.65625 221.410156 L 495.675781 216.242188 L 492.53125 211.175781 L 489.226562 206.210938 L 485.765625 201.351562 L 482.15625 196.605469 L 478.394531 191.976562 L 474.488281 187.46875 L 470.441406 183.085938 L 466.257812 178.835938 L 461.941406 174.71875 L 457.496094 170.742188 L 452.925781 166.90625 L 448.238281 163.21875 L 443.433594 159.683594 L 438.519531 156.300781 L 433.503906 153.078125 L 428.386719 150.011719 L 423.171875 147.113281 L 417.871094 144.378906 L 412.484375 141.816406 L 407.019531 139.425781 L 401.484375 137.207031 L 395.878906 135.167969 L 390.210938 133.308594 L 384.488281 131.625 L 378.714844 130.128906 L 372.898438 128.8125 L 367.039062 127.683594 L 361.152344 126.742188 L 355.234375 125.988281 L 349.296875 125.421875 L 343.34375 125.042969 L 337.382812 124.851562 L 331.417969 124.851562 L 325.457031 125.042969 L 319.503906 125.421875 L 313.566406 125.988281 L 307.648438 126.742188 L 301.757812 127.683594 L 295.902344 128.8125 L 290.085938 130.128906 L 284.3125 131.625 L 278.585938 133.308594 L 272.921875 135.167969 L 267.316406 137.207031 L 261.777344 139.425781 L 256.3125 141.816406 L 250.929688 144.378906 L 245.628906 147.113281 L 240.414062 150.011719 L 235.296875 153.078125 L 230.28125 156.300781 L 225.367188 159.683594 L 220.5625 163.21875 L 215.875 166.90625 L 211.304688 170.742188 L 206.859375 174.71875 L 202.542969 178.835938 L 198.359375 183.085938 L 194.3125 187.46875 L 190.40625 191.976562 L 186.644531 196.605469 L 183.03125 201.351562 L 179.574219 206.210938 L 176.269531 211.175781 L 173.125 216.242188 L 170.140625 221.410156 L 167.324219 226.667969 L 164.675781 232.011719 L 162.199219 237.4375 L 159.894531 242.9375 L 157.765625 248.511719 L 155.816406 254.148438 L 154.042969 259.84375 L 152.453125 265.589844 L 151.046875 271.386719 L 149.828125 277.226562 L 148.789062 283.101562 L 147.941406 289.003906 L 147.28125 294.933594 L 146.808594 300.878906 L 146.523438 306.835938 L 146.429688 312.800781 Z M 522.371094 312.800781 "/>
<path style="fill-rule:nonzero;fill:rgb(0%,0%,100%);fill-opacity:1;stroke-width:1;stroke-linecap:round;stroke-linejoin:round;stroke:rgb(0%,0%,0%);stroke-opacity:1;stroke-miterlimit:10;" d="M 146.429688 312.800781 L 146.523438 318.765625 L 146.808594 324.722656 L 147.28125 330.667969 L 147.941406 336.59375 L 148.789062 342.5 L 149.828125 348.375 L 151.046875 354.210938 L 152.453125 360.007812 L 154.042969 365.757812 L 155.816406 371.453125 L 157.765625 377.089844 L 159.894531 382.660156 L 162.199219 388.164062 L 164.675781 393.589844 L 167.324219 398.933594 L 170.140625 404.191406 L 173.125 409.355469 L 176.269531 414.425781 L 179.574219 419.390625 L 183.03125 424.25 L 186.644531 428.996094 L 190.40625 433.625 L 194.3125 438.132812 L 198.359375 442.515625 L 202.542969 446.765625 L 206.859375 450.882812 L 211.304688 454.859375 L 215.875 458.691406 L 220.5625 462.378906 L 225.367188 465.917969 L 230.28125 469.296875 L 235.296875 472.523438 L 240.414062 475.585938 L 245.628906 478.488281 L 250.929688 481.21875 L 256.3125 483.785156 L 261.777344 486.175781 L 267.316406 488.390625 L 272.921875 490.433594 L 278.585938 492.292969 L 284.3125 493.972656 L 290.085938 495.472656 L 295.902344 496.785156 L 301.757812 497.914062 L 307.648438 498.855469 L 313.566406 499.613281 L 319.503906 500.179688 L 325.457031 500.558594 L 331.417969 500.746094 L 337.382812 500.746094 L 343.34375 500.558594 L 349.296875 500.179688 L 355.234375 499.613281 L 361.152344 498.855469 L 367.039062 497.914062 L 372.898438 496.785156 L 378.714844 495.472656 L 384.488281 493.972656 L 390.210938 492.292969 L 395.878906 490.433594 L 401.484375 488.390625 L 407.019531 486.175781 L 412.484375 483.785156 L 417.871094 481.21875 L 423.171875 478.488281 L 428.386719 475.585938 L 433.503906 472.523438 L 438.519531 469.296875 L 443.433594 465.917969 L 448.238281 462.378906 L 452.925781 458.691406 L 457.496094 454.859375 L 461.941406 450.882812 L 466.257812 446.765625 L 470.441406 442.515625 L 474.488281 438.132812 L 478.394531 433.625 L 482.15625 428.996094 L 485.765625 424.25 L 489.226562 419.390625 L 492.53125 414.425781 L 495.675781 409.355469 L 498.65625 404.191406 L 501.476562 398.933594 L 504.125 393.589844 L 506.601562 388.164062 L 508.90625 382.660156 L 511.035156 377.089844 L 512.984375 371.453125 L 514.757812 365.757812 L 516.34375 360.007812 L 517.75 354.210938 L 518.972656 348.375 L 520.007812 342.5 L 520.859375 336.59375 L 521.519531 330.667969 L 521.992188 324.722656 L 522.277344 318.765625 L 522.371094 312.800781 Z M 146.429688 312.800781 "/>
</g>
</svg>
